<?xml version="1.0" encoding="UTF-8"?>
<!DOCTYPE svg PUBLIC "-//W3C//DTD SVG 1.1//EN" "http://www.w3.org/Graphics/SVG/1.1/DTD/svg11.dtd">
<svg xmlns="http://www.w3.org/2000/svg" version="1.1" width="262px" height="262px" style="shape-rendering:geometricPrecision; text-rendering:geometricPrecision; image-rendering:optimizeQuality; fill-rule:evenodd; clip-rule:evenodd" xmlns:xlink="http://www.w3.org/1999/xlink">
<g><path style="opacity:1" fill="#c6af4f" d="M 127.5,9.5 C 129.772,8.23555 132.105,8.40221 134.5,10C 133.565,12.3806 133.232,14.8806 133.5,17.5C 136.167,17.5 138.833,17.5 141.5,17.5C 141.958,14.6062 141.291,12.1062 139.5,10C 142.167,9.33333 144.833,9.33333 147.5,10C 146.484,10.5194 145.818,11.3527 145.5,12.5C 143.869,17.9408 144.203,23.1074 146.5,28C 144.559,28.7429 142.726,28.5762 141,27.5C 140.956,24.5248 141.123,21.5248 141.5,18.5C 138.833,18.5 136.167,18.5 133.5,18.5C 133.223,21.4475 133.556,24.2809 134.5,27C 129.623,27.8944 127.956,27.7277 129.5,26.5C 129.855,21.1511 130.022,15.8178 130,10.5C 129.329,9.74756 128.496,9.41423 127.5,9.5 Z"/></g>
<g><path style="opacity:1" fill="#c6b051" d="M 108.5,11.5 C 109.708,10.218 111.042,10.218 112.5,11.5C 113.326,12.451 113.492,13.451 113,14.5C 111.871,12.8588 110.371,11.8588 108.5,11.5 Z"/></g>
<g><path style="opacity:1" fill="#c6af4f" d="M 108.5,11.5 C 107.909,12.1515 107.243,12.8182 106.5,13.5C 107.664,18.1562 108.831,22.8229 110,27.5C 110.75,28.1258 111.584,28.6258 112.5,29C 110.179,29.8365 107.845,30.1699 105.5,30C 106.022,29.4387 106.355,28.772 106.5,28C 105.259,23.2048 104.259,18.3715 103.5,13.5C 102.167,13.5 100.833,13.5 99.5,13.5C 102.273,12.3428 105.273,11.6761 108.5,11.5 Z"/></g>
<g><path style="opacity:1" fill="#c5af4e" d="M 99.5,13.5 C 98.6575,18.3449 97.6575,18.5116 96.5,14C 97.448,13.5172 98.448,13.3505 99.5,13.5 Z"/></g>
<g><path style="opacity:1" fill="#c6af4f" d="M 171.5,16.5 C 169.876,16.3601 168.71,17.0267 168,18.5C 167.598,19.8721 167.098,21.2054 166.5,22.5C 169.131,24.0046 168.797,24.6713 165.5,24.5C 165.287,27.475 164.287,30.1416 162.5,32.5C 161.205,31.9017 159.872,31.4017 158.5,31C 159.667,30.5 160.5,29.6667 161,28.5C 162.308,24.2405 163.808,20.0738 165.5,16C 164.833,15.3333 164.167,14.6667 163.5,14C 166.394,14.1317 169.061,14.965 171.5,16.5 Z"/></g>
<g><path style="opacity:1" fill="#c6b051" d="M 171.5,16.5 C 172.791,16.2627 173.791,16.596 174.5,17.5C 173.209,17.7373 172.209,17.404 171.5,16.5 Z"/></g>
<g><path style="opacity:1" fill="#c5af4e" d="M 174.5,17.5 C 176.97,18.3603 177.137,19.6936 175,21.5C 174.51,20.2068 174.343,18.8734 174.5,17.5 Z"/></g>
<g><path style="opacity:1" fill="#c6af4f" d="M 84.5,37.5 C 84.6308,34.6333 83.2974,32.9666 80.5,32.5C 79.287,29.7746 77.4536,27.4412 75,25.5C 74.0726,28.8632 74.5726,31.8632 76.5,34.5C 74.7747,37.4368 75.4414,39.6035 78.5,41C 73.8835,44.8635 72.5502,44.0301 74.5,38.5C 74.0371,33.9618 73.3704,29.4618 72.5,25C 73.0593,22.8125 74.3927,22.1458 76.5,23C 80.5779,27.7489 85.2446,31.7489 90.5,35C 88.5932,36.122 86.5932,36.9553 84.5,37.5 Z M 80.5,32.5 C 78.847,32.6596 77.5137,33.3263 76.5,34.5C 74.5726,31.8632 74.0726,28.8632 75,25.5C 77.4536,27.4412 79.287,29.7746 80.5,32.5 Z"/></g>
<g><path style="opacity:1" fill="#c5af4e" d="M 169.5,25.5 C 169.897,24.475 170.563,24.3083 171.5,25C 170.906,25.4643 170.239,25.631 169.5,25.5 Z"/></g>
<g><path style="opacity:1" fill="#c5af4e" d="M 193.5,26.5 C 192.833,25.1667 192.833,25.1667 193.5,26.5 Z"/></g>
<g><path style="opacity:1" fill="#c6af50" d="M 193.5,26.5 C 195.255,27.0722 196.922,27.9055 198.5,29C 196.047,30.8799 194.047,33.2133 192.5,36C 193.056,36.3826 193.389,36.8826 193.5,37.5C 190.142,38.5269 188.475,40.8602 188.5,44.5C 186.388,43.5604 184.388,42.3937 182.5,41C 183.766,40.6905 184.933,40.1905 186,39.5C 189.029,35.4385 191.529,31.1051 193.5,26.5 Z"/></g>
<g><path style="opacity:1" fill="#c6af50" d="M 171.5,31.5 C 173.49,31.9931 173.49,33.1598 171.5,35C 170.092,35.3152 168.759,34.9819 167.5,34C 169.437,33.8784 170.77,33.045 171.5,31.5 Z"/></g>
<g><path style="opacity:1" fill="#c6af4f" d="M 196.5,49.5 C 195.542,49.0472 194.708,48.3805 194,47.5C 193.502,44.1832 193.335,40.8499 193.5,37.5C 197.993,38.5458 200.493,36.5458 201,31.5C 204.594,36.6378 203.094,39.3045 196.5,39.5C 196.5,42.8333 196.5,46.1667 196.5,49.5 Z"/></g>
<g><path style="opacity:1" fill="#c5af4e" d="M 164.5,33.5 C 164.897,32.475 165.563,32.3083 166.5,33C 165.906,33.4643 165.239,33.631 164.5,33.5 Z"/></g>
<g><path style="opacity:1" fill="#c6b052" d="M 48.5,40.5 C 50.3138,37.5458 52.3138,37.2125 54.5,39.5C 52.7024,39.2723 50.7024,39.6057 48.5,40.5 Z"/></g>
<g><path style="opacity:1" fill="#c5af4e" d="M 84.5,37.5 C 83.8333,38.1667 83.8333,38.1667 84.5,37.5 Z"/></g>
<g><path style="opacity:1" fill="#c5af50" d="M 48.5,40.5 C 47.8333,41.1667 47.8333,41.1667 48.5,40.5 Z"/></g>
<g><path style="opacity:1" fill="#c6af4f" d="M 47.5,41.5 C 47.969,44.6433 49.6356,46.9767 52.5,48.5C 53.7573,51.4274 55.7573,53.7607 58.5,55.5C 57.5,57.1667 56.1667,58.5 54.5,59.5C 52.4768,53.316 48.4768,48.816 42.5,46C 44.0375,44.2927 45.7041,42.7927 47.5,41.5 Z"/></g>
<g><path style="opacity:1" fill="#c6b153" d="M 55.5,44.5 C 56.8333,45.1667 56.8333,45.1667 55.5,44.5 Z"/></g>
<g><path style="opacity:1" fill="#c7b356" d="M 188.5,44.5 C 189.833,45.1667 189.833,45.1667 188.5,44.5 Z"/></g>
<g><path style="opacity:1" fill="#c5af50" d="M 55.5,45.5 C 54.8333,46.1667 54.8333,46.1667 55.5,45.5 Z"/></g>
<g><path style="opacity:1" fill="#c5af4e" d="M 54.5,46.5 C 53.8333,47.1667 53.8333,47.1667 54.5,46.5 Z"/></g>
<g><path style="opacity:1" fill="#c6af50" d="M 218.5,45.5 C 220.085,46.0024 220.585,47.0024 220,48.5C 218.29,49.9448 216.456,50.7782 214.5,51C 215.965,49.2258 217.298,47.3925 218.5,45.5 Z"/></g>
<g><path style="opacity:1" fill="#c5af4e" d="M 53.5,47.5 C 52.8333,48.1667 52.8333,48.1667 53.5,47.5 Z"/></g>
<g><path style="opacity:1" fill="#c6b052" d="M 61.5,52.5 C 62.3249,50.6782 62.6582,49.0115 62.5,47.5C 66.3498,49.708 66.0165,51.3747 61.5,52.5 Z"/></g>
<g><path style="opacity:1" fill="#c7b356" d="M 196.5,49.5 C 197.833,50.1667 197.833,50.1667 196.5,49.5 Z"/></g>
<g><path style="opacity:1" fill="#c5b050" d="M 61.5,52.5 C 60.8333,53.1667 60.8333,53.1667 61.5,52.5 Z"/></g>
<g><path style="opacity:1" fill="#c5af4e" d="M 60.5,53.5 C 59.8333,54.1667 59.8333,54.1667 60.5,53.5 Z"/></g>
<g><path style="opacity:1" fill="#c5af4e" d="M 59.5,54.5 C 58.8333,55.1667 58.8333,55.1667 59.5,54.5 Z"/></g>
<g><path style="opacity:1" fill="#c9b45a" d="M 54.5,59.5 C 53.8333,60.1667 53.8333,60.1667 54.5,59.5 Z"/></g>
<g><path style="opacity:1" fill="#c6af4f" d="M 151.5,78.5 C 150.895,84.0458 148.895,89.0458 145.5,93.5C 145.977,94.4776 146.643,95.3109 147.5,96C 143.642,98.3581 140.642,101.525 138.5,105.5C 138.833,106.5 139.5,107.167 140.5,107.5C 142.692,106.141 144.359,104.308 145.5,102C 151.799,98.6504 157.466,99.6504 162.5,105C 159.5,105.333 156.5,105.667 153.5,106C 150.57,107.795 147.57,109.295 144.5,110.5C 139.953,108.89 135.286,107.89 130.5,107.5C 125.825,107.757 121.325,108.757 117,110.5C 113.662,109.528 110.495,108.028 107.5,106C 104.5,105.667 101.5,105.333 98.5,105C 106.895,96.9146 114.228,97.7479 120.5,107.5C 121.5,107.167 122.167,106.5 122.5,105.5C 120.358,101.525 117.358,98.3581 113.5,96C 114.357,95.3109 115.023,94.4776 115.5,93.5C 112.105,89.0458 110.105,84.0458 109.5,78.5C 112.196,80.2696 115.029,81.9363 118,83.5C 118.926,88.2789 120.259,92.9456 122,97.5C 123.011,98.3366 124.178,98.67 125.5,98.5C 121.83,88.4798 120.33,78.1465 121,67.5C 121.667,68.1667 122.333,68.8333 123,69.5C 123.353,75.6164 124.353,81.6164 126,87.5C 127.545,88.8213 128.711,88.4879 129.5,86.5C 127.55,79.6291 127.05,72.6291 128,65.5C 129.667,57.5 131.333,57.5 133,65.5C 133.981,72.8264 133.481,79.993 131.5,87C 132.536,88.6169 133.703,88.7836 135,87.5C 136.787,81.6391 137.787,75.6391 138,69.5C 138.667,68.8333 139.333,68.1667 140,67.5C 140.783,78.1846 139.283,88.5179 135.5,98.5C 136.822,98.67 137.989,98.3366 139,97.5C 140.808,92.9338 142.308,88.2671 143.5,83.5C 146.202,81.78 148.868,80.1134 151.5,78.5 Z"/></g>
<g><path style="opacity:1" fill="#c6af4f" d="M 34.5,69.5 C 34.7035,67.6096 34.0368,66.1096 32.5,65C 30.5758,64.8208 28.9091,64.6541 27.5,64.5C 29.9442,60.9785 32.7776,60.6452 36,63.5C 35.9227,64.7376 36.0894,65.7376 36.5,66.5C 43.8917,64.7317 46.0584,67.3984 43,74.5C 42.4758,68.8347 39.6424,67.168 34.5,69.5 Z"/></g>
<g><path style="opacity:1" fill="#c6af4f" d="M 233.5,64.5 C 231.089,64.1367 229.589,65.1367 229,67.5C 229.608,70.8469 229.441,74.1802 228.5,77.5C 226.002,80.068 223.669,80.068 221.5,77.5C 223.39,77.7035 224.89,77.0368 226,75.5C 225.785,72.189 225.785,68.8557 226,65.5C 228.379,62.3346 230.879,62.0013 233.5,64.5 Z"/></g>
<g><path style="opacity:1" fill="#c5af4e" d="M 233.5,64.5 C 234.167,64.5 234.5,64.8333 234.5,65.5C 234.167,65.1667 233.833,64.8333 233.5,64.5 Z"/></g>
<g><path style="opacity:1" fill="#c6af4f" d="M 234.5,65.5 C 236.502,67.5255 236.836,69.8589 235.5,72.5C 234.692,72.1924 234.025,71.6924 233.5,71C 234.406,69.3005 234.739,67.4672 234.5,65.5 Z"/></g>
<g><path style="opacity:1" fill="#c6af50" d="M 34.5,69.5 C 34.3505,70.552 34.5172,71.552 35,72.5C 37.0403,74.0406 39.2069,75.3739 41.5,76.5C 40.4793,77.9014 39.4793,79.2347 38.5,80.5C 34.2324,76.0262 29.2324,72.5262 23.5,70C 24.7014,69.0975 25.5348,67.9308 26,66.5C 28.3531,69.4533 31.1864,70.4533 34.5,69.5 Z"/></g>
<g><path style="opacity:1" fill="#c6af4f" d="M 219.5,75.5 C 216.981,73.1192 216.981,70.7858 219.5,68.5C 220.308,68.8076 220.975,69.3076 221.5,70C 219.845,71.4443 219.178,73.2776 219.5,75.5 Z"/></g>
<g><path style="opacity:1" fill="#c8b256" d="M 219.5,75.5 C 220.5,75.8333 221.167,76.5 221.5,77.5C 220.167,77.5 219.5,76.8333 219.5,75.5 Z"/></g>
<g><path style="opacity:1" fill="#c8b358" d="M 109.5,78.5 C 108.833,77.1667 108.833,77.1667 109.5,78.5 Z"/></g>
<g><path style="opacity:1" fill="#c5af4e" d="M 151.5,77.5 C 152.833,78.1667 152.833,78.1667 151.5,77.5 Z"/></g>
<g><path style="opacity:1" fill="#c5b050" d="M 38.5,80.5 C 37.8333,81.1667 37.8333,81.1667 38.5,80.5 Z"/></g>
<g><path style="opacity:1" fill="#c6af50" d="M 111.5,94.5 C 108.157,93.7761 104.824,92.9428 101.5,92C 106.111,88.0837 109.444,88.917 111.5,94.5 Z"/></g>
<g><path style="opacity:1" fill="#c6af50" d="M 151.5,89.5 C 154.564,89.1437 157.231,89.9771 159.5,92C 155.725,93.043 152.058,94.043 148.5,95C 150.16,93.5123 151.16,91.679 151.5,89.5 Z"/></g>
<g><path style="opacity:1" fill="#c5af4e" d="M 111.5,94.5 C 112.833,95.1667 112.833,95.1667 111.5,94.5 Z"/></g>
<g><path style="opacity:1" fill="#c6af4f" d="M 129.5,110.5 C 135.335,110.831 140.335,112.997 144.5,117C 145.448,117.483 146.448,117.649 147.5,117.5C 147.5,116.5 147.5,115.5 147.5,114.5C 158.97,117.155 164.803,124.488 165,136.5C 171.39,145.959 172.223,155.959 167.5,166.5C 169.73,174.614 168.23,181.947 163,188.5C 159.502,191.634 156.335,195.134 153.5,199C 148.072,201.211 142.739,203.544 137.5,206C 132.833,208 128.167,208 123.5,206C 118.261,203.544 112.928,201.211 107.5,199C 105.383,197.269 103.883,195.102 103,192.5C 93.3172,185.452 90.4839,176.285 94.5,165C 88.9271,155.215 89.4271,145.715 96,136.5C 96.1836,124.499 102.017,117.166 113.5,114.5C 113.5,115.5 113.5,116.5 113.5,117.5C 118.439,114.217 123.773,111.884 129.5,110.5 Z M 127.5,114.5 C 131.804,114.268 135.804,115.268 139.5,117.5C 140.386,118.325 140.719,119.325 140.5,120.5C 137.175,119.84 133.842,119.174 130.5,118.5C 127.158,119.174 123.825,119.84 120.5,120.5C 120.281,119.325 120.614,118.325 121.5,117.5C 123.604,116.481 125.604,115.481 127.5,114.5 Z M 109.5,120.5 C 111.686,120.511 112.519,121.511 112,123.5C 108.378,125.397 106.212,128.397 105.5,132.5C 104.675,133.386 103.675,133.719 102.5,133.5C 102.74,127.954 105.073,123.621 109.5,120.5 Z M 149.5,120.5 C 155.69,122.526 158.69,126.859 158.5,133.5C 157.325,133.719 156.325,133.386 155.5,132.5C 154.739,128.134 152.406,124.967 148.5,123C 149.252,122.329 149.586,121.496 149.5,120.5 Z M 116.5,124.5 C 117.552,124.351 118.552,124.517 119.5,125C 122.588,129.676 126.255,133.843 130.5,137.5C 134.876,134.126 138.542,130.126 141.5,125.5C 142.325,124.614 143.325,124.281 144.5,124.5C 144.509,126.308 144.009,127.975 143,129.5C 140.37,133.132 137.37,136.465 134,139.5C 133.333,140.167 133.333,140.833 134,141.5C 137,143.833 140,146.167 143,148.5C 145.833,145 148.667,141.5 151.5,138C 152.448,137.517 153.448,137.351 154.5,137.5C 154.649,138.552 154.483,139.552 154,140.5C 151.308,143.692 148.808,147.025 146.5,150.5C 151.871,154.179 157.204,157.846 162.5,161.5C 162.167,162.5 161.5,163.167 160.5,163.5C 159.086,162.376 157.586,161.376 156,160.5C 152.833,163.667 149.667,166.833 146.5,170C 151.369,172.597 156.036,175.43 160.5,178.5C 160.167,179.5 159.5,180.167 158.5,180.5C 153.341,178.088 148.341,175.421 143.5,172.5C 140.346,175.243 137.012,177.743 133.5,180C 138.341,182.921 143.341,185.588 148.5,188C 149.337,189.011 149.67,190.178 149.5,191.5C 142.805,189.32 136.472,186.32 130.5,182.5C 124.528,186.32 118.195,189.32 111.5,191.5C 111.561,189.408 112.561,187.908 114.5,187C 118.993,184.921 123.326,182.588 127.5,180C 123.988,177.743 120.654,175.243 117.5,172.5C 112.659,175.421 107.659,178.088 102.5,180.5C 101.5,180.167 100.833,179.5 100.5,178.5C 104.964,175.43 109.631,172.597 114.5,170C 111.317,166.985 108.317,163.818 105.5,160.5C 103.999,161.752 102.332,162.752 100.5,163.5C 99.5,163.167 98.8333,162.5 98.5,161.5C 103.796,157.846 109.129,154.179 114.5,150.5C 112.192,147.025 109.692,143.692 107,140.5C 106.517,139.552 106.351,138.552 106.5,137.5C 107.552,137.351 108.552,137.517 109.5,138C 112.333,141.5 115.167,145 118,148.5C 121,146.167 124,143.833 127,141.5C 127.667,140.833 127.667,140.167 127,139.5C 123.63,136.465 120.63,133.132 118,129.5C 116.991,127.975 116.491,126.308 116.5,124.5 Z M 98.5,141.5 C 99.9778,141.238 101.311,141.571 102.5,142.5C 100.268,146.196 99.2677,150.196 99.5,154.5C 97.6536,154.778 96.3202,154.111 95.5,152.5C 96.3765,148.776 97.3765,145.11 98.5,141.5 Z M 158.5,141.5 C 161.48,141.241 163.313,142.574 164,145.5C 164.373,147.698 164.873,149.865 165.5,152C 164.968,154.02 163.635,154.853 161.5,154.5C 161.881,149.82 160.881,145.486 158.5,141.5 Z M 118.5,194.5 C 122.662,195.242 126.662,196.576 130.5,198.5C 134.333,196.668 138.333,195.335 142.5,194.5C 142.719,195.675 142.386,196.675 141.5,197.5C 134.235,202.773 126.901,202.773 119.5,197.5C 118.614,196.675 118.281,195.675 118.5,194.5 Z"/></g>
<g><path style="opacity:1" fill="#c6af4f" d="M 2.5,131.5 C 23.8437,131.167 45.1771,131.5 66.5,132.5C 55.8333,132.833 45.1667,133.167 34.5,133.5C 23.4784,133.499 12.8118,132.832 2.5,131.5 Z"/></g>
<g><path style="opacity:1" fill="#c5af4e" d="M 195.5,131.5 C 216.511,131.167 237.511,131.5 258.5,132.5C 248,132.833 237.5,133.167 227,133.5C 216.145,133.499 205.645,132.832 195.5,131.5 Z"/></g>
<g><path style="opacity:1" fill="#c6af4f" d="M 129.5,143.5 C 133.542,145.362 137.208,147.862 140.5,151C 137.607,154.396 134.274,157.229 130.5,159.5C 126.981,156.904 123.648,154.071 120.5,151C 123.69,148.636 126.69,146.136 129.5,143.5 Z"/></g>
<g><path style="opacity:1" fill="#c6af4f" d="M 116.5,153.5 C 120.272,156.094 123.939,158.927 127.5,162C 124.42,164.29 121.253,166.457 118,168.5C 114.833,165.333 111.667,162.167 108.5,159C 111.407,157.391 114.073,155.558 116.5,153.5 Z"/></g>
<g><path style="opacity:1" fill="#c6af4f" d="M 142.5,153.5 C 145.94,155.055 149.273,156.888 152.5,159C 149.333,162.167 146.167,165.333 143,168.5C 139.747,166.457 136.58,164.29 133.5,162C 136.957,159.613 139.957,156.78 142.5,153.5 Z"/></g>
<g><path style="opacity:1" fill="#c5af4e" d="M 233.5,155.5 C 234.251,154.427 235.251,154.26 236.5,155C 235.552,155.483 234.552,155.649 233.5,155.5 Z"/></g>
<g><path style="opacity:1" fill="#c6af4f" d="M 26.5,157.5 C 23.3926,157.351 20.3926,157.851 17.5,159C 15.9963,160.491 15.1629,162.324 15,164.5C 13.7391,158.685 16.0724,155.685 22,155.5C 24.0081,155.307 25.5081,155.974 26.5,157.5 Z"/></g>
<g><path style="opacity:1" fill="#c5af4e" d="M 26.5,157.5 C 27.1667,157.5 27.5,157.833 27.5,158.5C 27.1667,158.167 26.8333,157.833 26.5,157.5 Z"/></g>
<g><path style="opacity:1" fill="#c7b053" d="M 232.5,156.5 C 233.525,156.897 233.692,157.563 233,158.5C 232.536,157.906 232.369,157.239 232.5,156.5 Z"/></g>
<g><path style="opacity:1" fill="#c7b155" d="M 244.5,157.5 C 245.386,156.224 246.386,156.224 247.5,157.5C 246.767,158.087 245.767,158.087 244.5,157.5 Z"/></g>
<g><path style="opacity:1" fill="#c7b154" d="M 27.5,158.5 C 28.525,158.897 28.6917,159.563 28,160.5C 27.5357,159.906 27.369,159.239 27.5,158.5 Z"/></g>
<g><path style="opacity:1" fill="#c6af4f" d="M 238.5,159.5 C 239.404,160.209 239.737,161.209 239.5,162.5C 241.5,162.833 243.5,163.167 245.5,163.5C 245.719,164.675 245.386,165.675 244.5,166.5C 240.213,165.012 235.879,163.678 231.5,162.5C 232.691,160.227 234.358,159.893 236.5,161.5C 237.713,161.253 238.38,160.586 238.5,159.5 Z"/></g>
<g><path style="opacity:1" fill="#c6af50" d="M 27.5,161.5 C 28.7759,162.386 28.7759,163.386 27.5,164.5C 26.4376,163.575 26.4376,162.575 27.5,161.5 Z"/></g>
<g><path style="opacity:1" fill="#c7b154" d="M 245.5,160.5 C 246.525,160.897 246.692,161.563 246,162.5C 245.536,161.906 245.369,161.239 245.5,160.5 Z"/></g>
<g><path style="opacity:1" fill="#c6af4f" d="M 129.5,164.5 C 133.109,165.974 136.443,167.974 139.5,170.5C 136.81,173.185 133.81,175.518 130.5,177.5C 127.19,175.518 124.19,173.185 121.5,170.5C 124.235,168.479 126.901,166.479 129.5,164.5 Z"/></g>
<g><path style="opacity:1" fill="#c5af4e" d="M 16.5,166.5 C 15.8333,165.167 15.8333,165.167 16.5,166.5 Z"/></g>
<g><path style="opacity:1" fill="#c5af4e" d="M 16.5,166.5 C 17.8333,167.167 17.8333,167.167 16.5,166.5 Z"/></g>
<g><path style="opacity:1" fill="#c6ae4f" d="M 227.5,174.5 C 228.675,174.281 229.675,174.614 230.5,175.5C 229.277,176.614 227.944,176.781 226.5,176C 227.056,175.617 227.389,175.117 227.5,174.5 Z"/></g>
<g><path style="opacity:1" fill="#c6af50" d="M 26.5,175.5 C 29.3198,175.248 31.9865,175.748 34.5,177C 29.0912,176.953 24.9246,179.12 22,183.5C 21.5325,179.785 23.0325,177.119 26.5,175.5 Z"/></g>
<g><path style="opacity:1" fill="#c5af4e" d="M 225.5,177.5 C 226.833,178.167 226.833,178.167 225.5,177.5 Z"/></g>
<g><path style="opacity:1" fill="#c6af50" d="M 238.5,183.5 C 238.5,182.5 238.5,181.5 238.5,180.5C 237.041,180.567 235.708,180.234 234.5,179.5C 234.351,178.448 234.517,177.448 235,176.5C 236.085,177.293 237.252,177.96 238.5,178.5C 239.788,180.299 239.788,181.965 238.5,183.5 Z"/></g>
<g><path style="opacity:1" fill="#c5af4f" d="M 34.5,178.5 C 35.8333,179.167 35.8333,179.167 34.5,178.5 Z"/></g>
<g><path style="opacity:1" fill="#c6b152" d="M 234.5,179.5 C 233.833,180.167 233.833,180.167 234.5,179.5 Z"/></g>
<g><path style="opacity:1" fill="#c6af50" d="M 237.5,185.5 C 233.547,189.338 229.714,189.005 226,184.5C 225.333,183.167 225.333,181.833 226,180.5C 228.532,184.907 232.365,186.574 237.5,185.5 Z"/></g>
<g><path style="opacity:1" fill="#c6af50" d="M 23.5,186.5 C 25.5273,186.662 27.5273,186.495 29.5,186C 32.2146,184.826 34.548,183.492 36.5,182C 33.825,188.549 29.4917,190.049 23.5,186.5 Z"/></g>
<g><path style="opacity:1" fill="#c9b45b" d="M 23.5,186.5 C 22.475,186.103 22.3083,185.437 23,184.5C 23.4643,185.094 23.631,185.761 23.5,186.5 Z"/></g>
<g><path style="opacity:1" fill="#c8b357" d="M 238.5,183.5 C 238.672,184.492 238.338,185.158 237.5,185.5C 237.328,184.508 237.662,183.842 238.5,183.5 Z"/></g>
<g><path style="opacity:1" fill="#c6af50" d="M 218.5,194.5 C 215.999,194.489 215.832,193.822 218,192.5C 218.464,193.094 218.631,193.761 218.5,194.5 Z"/></g>
<g><path style="opacity:1" fill="#c5af4e" d="M 218.5,194.5 C 219.167,194.5 219.5,194.833 219.5,195.5C 219.167,195.167 218.833,194.833 218.5,194.5 Z"/></g>
<g><path style="opacity:1" fill="#c6af4f" d="M 44.5,196.5 C 39.4046,197.523 36.4046,200.523 35.5,205.5C 33.4534,201.097 34.7867,197.93 39.5,196C 41.3869,195.22 43.0536,195.387 44.5,196.5 Z"/></g>
<g><path style="opacity:1" fill="#c5af4e" d="M 219.5,195.5 C 220.167,195.5 220.5,195.833 220.5,196.5C 220.167,196.167 219.833,195.833 219.5,195.5 Z"/></g>
<g><path style="opacity:1" fill="#c5b050" d="M 44.5,196.5 C 45.8333,197.167 45.8333,197.167 44.5,196.5 Z"/></g>
<g><path style="opacity:1" fill="#c8b257" d="M 220.5,196.5 C 221.492,196.328 222.158,196.662 222.5,197.5C 221.508,197.672 220.842,197.338 220.5,196.5 Z"/></g>
<g><path style="opacity:1" fill="#c5af4e" d="M 222.5,197.5 C 223.167,197.5 223.5,197.833 223.5,198.5C 223.167,198.167 222.833,197.833 222.5,197.5 Z"/></g>
<g><path style="opacity:1" fill="#c6b152" d="M 47.5,199.5 C 46.8333,198.167 46.8333,198.167 47.5,199.5 Z"/></g>
<g><path style="opacity:1" fill="#c5af4e" d="M 223.5,198.5 C 224.167,198.5 224.5,198.833 224.5,199.5C 224.167,199.167 223.833,198.833 223.5,198.5 Z"/></g>
<g><path style="opacity:1" fill="#c6af4f" d="M 224.5,199.5 C 226.196,199.685 227.529,200.519 228.5,202C 223.316,202.174 218.316,202.674 213.5,203.5C 211.515,203.141 210.849,202.308 211.5,201C 216.019,200.825 220.353,200.325 224.5,199.5 Z"/></g>
<g><path style="opacity:1" fill="#c6af4f" d="M 47.5,199.5 C 48.7759,200.386 48.7759,201.386 47.5,202.5C 46.4376,201.575 46.4376,200.575 47.5,199.5 Z"/></g>
<g><path style="opacity:1" fill="#c6b051" d="M 213.5,203.5 C 214.833,204.167 214.833,204.167 213.5,203.5 Z"/></g>
<g><path style="opacity:1" fill="#c5b050" d="M 216.5,205.5 C 215.833,204.167 215.833,204.167 216.5,205.5 Z"/></g>
<g><path style="opacity:1" fill="#c5af4e" d="M 216.5,205.5 C 217.167,205.5 217.5,205.833 217.5,206.5C 217.167,206.167 216.833,205.833 216.5,205.5 Z"/></g>
<g><path style="opacity:1" fill="#c6b053" d="M 35.5,205.5 C 36.3382,205.842 36.6716,206.508 36.5,207.5C 35.6618,207.158 35.3284,206.492 35.5,205.5 Z"/></g>
<g><path style="opacity:1" fill="#c5af50" d="M 217.5,206.5 C 218.833,207.167 218.833,207.167 217.5,206.5 Z"/></g>
<g><path style="opacity:1" fill="#c7b155" d="M 36.5,207.5 C 37.4916,207.328 38.1583,207.662 38.5,208.5C 37.5084,208.672 36.8417,208.338 36.5,207.5 Z"/></g>
<g><path style="opacity:1" fill="#c6b051" d="M 220.5,208.5 C 219.833,207.167 219.833,207.167 220.5,208.5 Z"/></g>
<g><path style="opacity:1" fill="#c9b45a" d="M 38.5,208.5 C 39.8333,209.167 39.8333,209.167 38.5,208.5 Z"/></g>
<g><path style="opacity:1" fill="#c6af51" d="M 220.5,208.5 C 222.424,208.711 222.757,209.377 221.5,210.5C 221.167,209.833 220.833,209.167 220.5,208.5 Z"/></g>
<g><path style="opacity:1" fill="#c6af50" d="M 58.5,211.5 C 56.7041,212.793 55.0375,214.293 53.5,216C 54.8333,216.333 56.1667,216.667 57.5,217C 56.5447,220.099 55.7114,223.266 55,226.5C 54.0093,225.57 53.5093,224.404 53.5,223C 53.9434,221.175 54.2767,219.342 54.5,217.5C 52.0194,217.774 50.3527,219.107 49.5,221.5C 48.3734,220.878 47.3734,220.045 46.5,219C 50.7189,216.448 53.8855,212.948 56,208.5C 57.045,209.373 57.8783,210.373 58.5,211.5 Z"/></g>
<g><path style="opacity:1" fill="#c5af4e" d="M 203.5,211.5 C 202.833,210.167 202.833,210.167 203.5,211.5 Z"/></g>
<g><path style="opacity:1" fill="#c8b357" d="M 221.5,210.5 C 220.833,211.167 220.833,211.167 221.5,210.5 Z"/></g>
<g><path style="opacity:1" fill="#c9b55d" d="M 58.5,211.5 C 59.8333,212.167 59.8333,212.167 58.5,211.5 Z"/></g>
<g><path style="opacity:1" fill="#c9b45a" d="M 200.5,211.5 C 201.833,212.167 201.833,212.167 200.5,211.5 Z"/></g>
<g><path style="opacity:1" fill="#c6b052" d="M 203.5,211.5 C 204.167,211.5 204.5,211.833 204.5,212.5C 204.167,212.167 203.833,211.833 203.5,211.5 Z"/></g>
<g><path style="opacity:1" fill="#c9b359" d="M 204.5,212.5 C 205.338,212.842 205.672,213.508 205.5,214.5C 204.662,214.158 204.328,213.492 204.5,212.5 Z"/></g>
<g><path style="opacity:1" fill="#c6af51" d="M 61.5,214.5 C 62.2891,214.783 62.9558,215.283 63.5,216C 62.1667,216.667 60.8333,216.667 59.5,216C 60.4158,215.722 61.0825,215.222 61.5,214.5 Z"/></g>
<g><path style="opacity:1" fill="#c5b050" d="M 205.5,214.5 C 206.167,214.5 206.5,214.833 206.5,215.5C 206.167,215.167 205.833,214.833 205.5,214.5 Z"/></g>
<g><path style="opacity:1" fill="#c6af50" d="M 207.5,224.5 C 206.054,225.613 204.387,225.78 202.5,225C 199.403,222.609 197.237,219.776 196,216.5C 196.333,216.167 196.667,215.833 197,215.5C 199.853,218.052 202.353,220.885 204.5,224C 205.448,224.483 206.448,224.649 207.5,224.5 Z"/></g>
<g><path style="opacity:1" fill="#c5af4e" d="M 206.5,215.5 C 207.167,215.5 207.5,215.833 207.5,216.5C 207.167,216.167 206.833,215.833 206.5,215.5 Z"/></g>
<g><path style="opacity:1" fill="#c5af4e" d="M 207.5,216.5 C 208.167,216.5 208.5,216.833 208.5,217.5C 208.167,217.167 207.833,216.833 207.5,216.5 Z"/></g>
<g><path style="opacity:1" fill="#c9b55b" d="M 193.5,217.5 C 194.833,218.167 194.833,218.167 193.5,217.5 Z"/></g>
<g><path style="opacity:1" fill="#c5af4e" d="M 208.5,217.5 C 209.167,217.5 209.5,217.833 209.5,218.5C 209.167,218.167 208.833,217.833 208.5,217.5 Z"/></g>
<g><path style="opacity:1" fill="#c7b052" d="M 209.5,218.5 C 210.833,219.833 210.833,221.167 209.5,222.5C 209.5,221.167 209.5,219.833 209.5,218.5 Z"/></g>
<g><path style="opacity:1" fill="#c7b256" d="M 49.5,221.5 C 50.8333,222.167 50.8333,222.167 49.5,221.5 Z"/></g>
<g><path style="opacity:1" fill="#c8b256" d="M 70.5,223.5 C 71.2376,221.24 72.2376,221.073 73.5,223C 72.552,223.483 71.552,223.649 70.5,223.5 Z"/></g>
<g><path style="opacity:1" fill="#c5af4e" d="M 209.5,222.5 C 208.833,223.167 208.833,223.167 209.5,222.5 Z"/></g>
<g><path style="opacity:1" fill="#c6b153" d="M 70.5,223.5 C 69.8333,224.167 69.8333,224.167 70.5,223.5 Z"/></g>
<g><path style="opacity:1" fill="#c5af4e" d="M 208.5,223.5 C 207.833,224.167 207.833,224.167 208.5,223.5 Z"/></g>
<g><path style="opacity:1" fill="#c6af50" d="M 71.5,237.5 C 70.3569,237.092 69.3569,236.425 68.5,235.5C 70.9354,231.628 73.1021,227.628 75,223.5C 78.6384,224.671 78.9717,226.004 76,227.5C 74.1909,230.778 72.6909,234.111 71.5,237.5 Z"/></g>
<g><path style="opacity:1" fill="#c8b257" d="M 180.5,226.5 C 180.897,225.475 181.563,225.308 182.5,226C 181.906,226.464 181.239,226.631 180.5,226.5 Z"/></g>
<g><path style="opacity:1" fill="#c6af50" d="M 189.5,236.5 C 189.328,231.823 187.328,228.156 183.5,225.5C 187.007,225.102 189.507,226.769 191,230.5C 191.941,232.989 191.441,234.989 189.5,236.5 Z"/></g>
<g><path style="opacity:1" fill="#c5af4e" d="M 80.5,227.5 C 79.8333,226.167 79.8333,226.167 80.5,227.5 Z"/></g>
<g><path style="opacity:1" fill="#c5af4e" d="M 180.5,226.5 C 179.833,227.167 179.833,227.167 180.5,226.5 Z"/></g>
<g><path style="opacity:1" fill="#c6af50" d="M 179.5,227.5 C 179.668,232.673 182.002,236.506 186.5,239C 181.016,239.695 178.016,237.195 177.5,231.5C 177.668,229.829 178.335,228.496 179.5,227.5 Z"/></g>
<g><path style="opacity:1" fill="#c8b258" d="M 80.5,227.5 C 81.8333,228.167 81.8333,228.833 80.5,229.5C 80.5,228.833 80.5,228.167 80.5,227.5 Z"/></g>
<g><path style="opacity:1" fill="#c5af4e" d="M 80.5,229.5 C 79.8333,230.167 79.8333,230.167 80.5,229.5 Z"/></g>
<g><path style="opacity:1" fill="#c6af4f" d="M 93.5,234.5 C 94.209,233.596 95.209,233.263 96.5,233.5C 96.6659,238.511 96.4993,243.511 96,248.5C 94.9326,247.809 93.7659,247.309 92.5,247C 95.1667,245.333 95.1667,243.667 92.5,242C 93.6582,240.991 94.3248,239.658 94.5,238C 94.4857,236.615 94.1524,235.449 93.5,234.5 Z"/></g>
<g><path style="opacity:1" fill="#c8b357" d="M 66.5,234.5 C 67.8333,235.167 67.8333,235.167 66.5,234.5 Z"/></g>
<g><path style="opacity:1" fill="#c5af4e" d="M 93.5,234.5 C 92.8333,235.167 92.8333,235.167 93.5,234.5 Z"/></g>
<g><path style="opacity:1" fill="#c7b154" d="M 92.5,235.5 C 91.8333,236.167 91.8333,236.167 92.5,235.5 Z"/></g>
<g><path style="opacity:1" fill="#c6af4f" d="M 161.5,248.5 C 160.983,244.778 160.15,241.112 159,237.5C 158.25,236.874 157.416,236.374 156.5,236C 157.872,235.598 159.205,235.098 160.5,234.5C 162.041,239.121 163.374,243.788 164.5,248.5C 163.5,248.5 162.5,248.5 161.5,248.5 Z"/></g>
<g><path style="opacity:1" fill="#c6b152" d="M 189.5,236.5 C 188.833,237.167 188.833,237.167 189.5,236.5 Z"/></g>
<g><path style="opacity:1" fill="#c8b358" d="M 71.5,237.5 C 72.8333,238.167 72.8333,238.167 71.5,237.5 Z"/></g>
<g><path style="opacity:1" fill="#c7b356" d="M 90.5,237.5 C 91.8333,238.167 91.8333,238.167 90.5,237.5 Z"/></g>
<g><path style="opacity:1" fill="#c6af4f" d="M 110.5,238.5 C 111.849,237.203 113.182,237.37 114.5,239C 113.046,243.009 112.379,247.175 112.5,251.5C 110.801,251.66 109.134,251.494 107.5,251C 108.849,250.228 109.682,249.061 110,247.5C 110.339,244.964 110.839,242.464 111.5,240C 111.43,239.235 111.097,238.735 110.5,238.5 Z"/></g>
<g><path style="opacity:1" fill="#c5af4f" d="M 188.5,237.5 C 187.833,238.167 187.833,238.167 188.5,237.5 Z"/></g>
<g><path style="opacity:1" fill="#c5af4e" d="M 90.5,238.5 C 89.8333,239.167 89.8333,239.167 90.5,238.5 Z"/></g>
<g><path style="opacity:1" fill="#c5af4e" d="M 89.5,239.5 C 89.5,239.833 89.5,240.167 89.5,240.5C 88.8299,240.019 88.8299,239.685 89.5,239.5 Z"/></g>
<g><path style="opacity:1" fill="#c6af4f" d="M 126.5,239.5 C 127.552,239.351 128.552,239.517 129.5,240C 128.536,244.066 128.203,248.233 128.5,252.5C 131.114,252.295 133.448,252.295 135.5,252.5C 131.878,253.659 128.211,253.825 124.5,253C 126.399,248.822 127.065,244.322 126.5,239.5 Z"/></g>
<g><path style="opacity:1" fill="#c5af4e" d="M 88.5,240.5 C 87.8333,241.167 87.8333,241.167 88.5,240.5 Z"/></g>
<g><path style="opacity:1" fill="#c8b358" d="M 89.5,240.5 C 90.2389,240.369 90.9056,240.536 91.5,241C 90.5632,241.692 89.8966,241.525 89.5,240.5 Z"/></g>
<g><path style="opacity:1" fill="#c6af52" d="M 87.5,241.5 C 87.6716,242.492 87.3382,243.158 86.5,243.5C 86.3284,242.508 86.6618,241.842 87.5,241.5 Z"/></g>
<g><path style="opacity:1" fill="#c7b154" d="M 169.5,242.5 C 170.833,243.167 170.833,243.167 169.5,242.5 Z"/></g>
<g><path style="opacity:1" fill="#c6af51" d="M 86.5,243.5 C 86.5,243.833 86.5,244.167 86.5,244.5C 82.5,244.167 82.5,243.833 86.5,243.5 Z"/></g>
<g><path style="opacity:1" fill="#c5af50" d="M 86.5,244.5 C 87.8333,245.167 87.8333,245.167 86.5,244.5 Z"/></g>
<g><path style="opacity:1" fill="#c7b053" d="M 169.5,244.5 C 171.337,244.639 171.67,245.306 170.5,246.5C 169.702,246.043 169.369,245.376 169.5,244.5 Z"/></g>
<g><path style="opacity:1" fill="#c5af4f" d="M 166.5,246.5 C 167.833,247.167 167.833,247.167 166.5,246.5 Z"/></g>
<g><path style="opacity:1" fill="#c6b051" d="M 161.5,248.5 C 160.833,249.167 160.833,249.167 161.5,248.5 Z"/></g>
</svg>
